<?xml version="1.0" encoding="UTF-8"?>
<svg xmlns="http://www.w3.org/2000/svg" class="svg-inline--fa fa-question fa-w-12" role="img" aria-hidden="true" viewBox="0 0 384 512" data-icon="question" data-prefix="fas"><path fill="#dd3e42" d="M 202.021 0 C 122.202 0 70.503 32.703 29.914 91.026 c -7.363 10.58 -5.093 25.086 5.178 32.874 l 43.138 32.709 c 10.373 7.865 25.132 6.026 33.253 -4.148 c 25.049 -31.381 43.63 -49.449 82.757 -49.449 c 30.764 0 68.816 19.799 68.816 49.631 c 0 22.552 -18.617 34.134 -48.993 51.164 c -35.423 19.86 -82.299 44.576 -82.299 106.405 V 320 c 0 13.255 10.745 24 24 24 h 72.471 c 13.255 0 24 -10.745 24 -24 v -5.773 c 0 -42.86 125.268 -44.645 125.268 -160.627 C 377.504 66.256 286.902 0 202.021 0 Z M 192 373.459 c -38.196 0 -69.271 31.075 -69.271 69.271 c 0 38.195 31.075 69.27 69.271 69.27 s 69.271 -31.075 69.271 -69.271 s -31.075 -69.27 -69.271 -69.27 Z" /></svg>